PathFileType	4	(X/Y/Z)	64_2_21_p1_0-490.trc
DataRate	CameraRate	NumFrames	NumMarkers	Units	OrigDataRate	OrigDataStartFrame	OrigNumFrames
54.0	54.0	6	27	m	54.0	368	491
Frame#	Time	RHip			RKnee			RAnkle			RBigToe			RSmallToe			RHeel			LHip			LKnee			LAnkle			LBigToe			LSmallToe			LHeel			Neck			Head			Nose			RShoulder			RElbow			RWrist			RThumb			RIndex			RPinky			LShoulder			LElbow			LWrist			LThumb			LIndex			LPinky			
		X1	Y1	Z1	X2	Y2	Z2	X3	Y3	Z3	X4	Y4	Z4	X5	Y5	Z5	X6	Y6	Z6	X7	Y7	Z7	X8	Y8	Z8	X9	Y9	Z9	X10	Y10	Z10	X11	Y11	Z11	X12	Y12	Z12	X13	Y13	Z13	X14	Y14	Z14	X15	Y15	Z15	X16	Y16	Z16	X17	Y17	Z17	X18	Y18	Z18	X19	Y19	Z19	X20	Y20	Z20	X21	Y21	Z21	X22	Y22	Z22	X23	Y23	Z23	X24	Y24	Z24	X25	Y25	Z25	X26	Y26	Z26	X27	Y27	Z27	
368	6.814814814814815	0.347510671046447	0.7095468228696087	0.5496607690234069	0.3059952163506714	0.9963886785637335	0.9200203001868112	0.26442187490519276	1.229507918364726	1.2803012826739906	0.2931379509515263	1.0633424375394995	1.4192809323497042	0.35127720332550566	1.1021934014339698	1.3908719367979168	0.1992265416729303	1.3445674411523034	1.3176957012544634	0.15704659606251034	0.6347595641552372	0.5815457554673769	0.10842741057594056	0.9297470195986002	0.9354044098478037	0.08211725279602612	1.202356224001435	1.2895987912486895	0.1256808817161743	1.0155467182988247	1.4189406819397752	0.06019248160277218	1.079743265379161	1.4063955889399462	0.06763565604894131	1.3065312687040662	1.3029456050749642	0.2893311983220152	0.34314191538214783	0.03478066323660089	0.31058031599259733	0.17048072365648975	-0.1559512680534641	0.33296694865341303	0.15765416692971718	0.024179864062019794	0.4265430890493192	0.4898455816027332	0.06407614920990622	0.4203099034669048	0.6728425640604428	0.3124287636140241	0.4472027966743619	0.6741641035876353	0.5928239148884594	0.431982783513964	0.6665241175919637	0.7095779302330348	0.4628317146833973	0.6660808705780342	0.7116801823723192	0.4280935129080584	0.7444329221176551	0.6961552213718251	0.10319638263982628	0.3928855316687461	0.10245318966745033	0.015163755516887655	0.5196997881292097	0.3459468258750262	0.058947038652599995	0.5832292142008417	0.6160414994882739	0.0930555846972755	0.6288121136660895	0.7229554537493511	0.07321686465537985	0.6178265958808439	0.757990645626982	0.03240059667955096	0.6567990233301362	0.7384409209330615
369	6.833333333333333	0.3390707321147029	0.7227450796150494	0.5465542264762138	0.3060830159652231	0.9968284581658032	0.9201390473973525	0.26503034975295725	1.225839160418436	1.2715453684032405	0.29297233261896405	1.0593300209757575	1.415519760553579	0.3522774971513374	1.0862653471815933	1.3908877873624055	0.20156457798921446	1.345073428290592	1.3091533851439903	0.14830447758176915	0.6462996387025223	0.5791193057480836	0.09922347802887845	0.9433262977356536	0.9344748232957564	0.08216307457820346	1.2029184966489703	1.2896025082517004	0.1256815331107077	1.0155565137383396	1.4192929387104705	0.0600878839689877	1.080701873328826	1.4066253541754115	0.06749662675382637	1.3119052664114004	1.306495852254217	0.2818593966645589	0.3524970780592846	0.03020294498578338	0.31062585677127147	0.1703554383899923	-0.15602357332019515	0.33305244300687986	0.15770948065010723	0.024154353439533344	0.4190162618409337	0.49915127237618634	0.0559109956635244	0.42014482823226773	0.6728239129227217	0.3125568581490166	0.4472463775692938	0.6741564323588852	0.5929346694435896	0.4442507220682398	0.6686480521578473	0.71144004181719	0.46646734022181324	0.6678385628088991	0.7107497813634859	0.4485504118993162	0.7205717588710592	0.6997075513566874	0.10300834603884011	0.39516288754167905	0.10490116920500431	0.018588241639955785	0.5224550213743377	0.3448401007022973	0.06249306065356324	0.5853296947857868	0.6151912220701166	0.09284210138197363	0.6290313399371829	0.7229886203949226	0.072986735934771	0.6176957823767951	0.7580601733882604	0.03214184442321323	0.656929611600149	0.7383197819154732
370	6.851851851851852	0.33880120779977574	0.722887580317104	0.5461422845744179	0.30617883948390373	0.9957176277745756	0.9195119103432042	0.2650220392698209	1.2256970366176498	1.2715605429955728	0.29302540273961186	1.059353480050807	1.4156576002204602	0.3522059460461687	1.0866618398742283	1.3908879864816757	0.1981284393576343	1.3418277177997597	1.3105289490257968	0.14433993962246947	0.6443884786531696	0.5798625690288821	0.10867461129110909	0.9295000748407714	0.9353543464118369	0.08205085399351204	1.2025390611715332	1.2896928230853777	0.12567889333389162	1.0156636972212874	1.4192480410963508	0.05649825433535427	1.0769742575103518	1.4072031692077198	0.0676678627323825	1.3079294998799493	1.3033437380137811	0.28179521378655265	0.3525538359935291	0.03003017343685378	0.30989895661406686	0.18015327145633023	-0.16205596462940644	0.3364142161730562	0.15984495468670648	0.022864364810164985	0.4191490825378546	0.5007088489228777	0.05918913667421811	0.42005676175551016	0.673065922622526	0.3126845589259472	0.4472623544897233	0.6746538168101223	0.5927832109592752	0.45233873117136564	0.6582692514118025	0.713270540422124	0.46751040054125154	0.6790984691307519	0.7081224216851061	0.4640191746158219	0.6981236160635218	0.7075186962050878	0.10314512549696703	0.39271045017210576	0.10243767851908457	0.01858945575166478	0.5225942697816197	0.34482337698767024	0.061648875935241924	0.5869189297202265	0.6183199062915578	0.0925595992122614	0.6289327709342797	0.7230873588456758	0.06592810767795292	0.6160140654032367	0.7592103557228973	0.0225238404746903	0.6673811677896188	0.7324749521322851
371	6.87037037037037	0.3386794529210282	0.7230582984848221	0.546420005647175	0.30616077323433555	0.9956854081698128	0.9194218067625448	0.2655952000219532	1.2266386893744061	1.2756260835637865	0.2931919571326545	1.0593135549699952	1.4152815132959198	0.3529793167310766	1.085722583237232	1.3907192115949774	0.1984626882971651	1.3430709142760073	1.3136645574378867	0.13533413591266755	0.6561314124496572	0.5774111332334884	0.09912697782080478	0.9432575311279899	0.934409324927343	0.08226343454307547	1.2019085081582612	1.2892582418187606	0.1257122813734942	1.015517990476261	1.4192001239673355	0.05653905427337311	1.0767264746213798	1.407192255332511	0.06771319236422786	1.3067303002454709	1.3026950637188857	0.2817900375067125	0.3525709133613342	0.030002630826805637	0.3099258310724438	0.18021981430490072	-0.16213289739294304	0.33644298714366955	0.15989501966691128	0.022792679760767338	0.41914549881914337	0.5007486418190219	0.059208957267669074	0.42001254475365185	0.6700619443069665	0.30954889079639747	0.44770955073326063	0.6766331568798525	0.5962295593790393	0.4484978952622427	0.6729918463358397	0.710316039205894	0.4682708732617449	0.6832907013626726	0.7140699778528742	0.4643642805319631	0.7101198163072492	0.7047043228944998	0.10286450172762997	0.39531014627461436	0.10488508873033182	0.018646027057061206	0.522575279538074	0.34488327369478694	0.05826240347796386	0.584714771023102	0.6192708673165535	0.08885945684600953	0.6274271331724375	0.7235748787270113	0.06333882361469885	0.6102582226588511	0.7571401530153843	0.03268483548773548	0.6549921439396615	0.7358247891380506
372	6.888888888888889	0.33930637038073197	0.723965368926625	0.550303169341529	0.2980710702366557	1.0116159011495247	0.9224042945656843	0.26187219956332125	1.2239587903380065	1.2770429536872776	0.28505045008093804	1.0776022669716203	1.4207628208456247	0.35258476800034183	1.085183060311794	1.3911192361243705	0.20089136392227658	1.3426687352201512	1.316911354201725	0.1443372981494897	0.6440459200757921	0.5802457774300739	0.09948190964252843	0.9435883193791771	0.9385871202151784	0.08448255900702381	1.1833546342844024	1.2895184912556623	0.136301752425329	0.9905733736970299	1.421366591737667	0.05843097615667796	1.0606802725473277	1.4069043340150569	0.06765955708618192	1.3045428216116837	1.3024393968613248	0.2816022264695147	0.35273897685853806	0.029751414312102115	0.3099269659418916	0.18033112249033856	-0.1622082170064363	0.3365902048027496	0.15978005442305063	0.0226486820546899	0.41899192901387555	0.502232014010391	0.06215455743617846	0.42028342481821884	0.673292960106788	0.3126779881116746	0.45552929445674956	0.6760758187552622	0.595865798963346	0.4517509021125443	0.6757870898814021	0.7094685397854106	0.4712934985065536	0.6851755914718373	0.7135404556531966	0.4639414020431073	0.7091286562988833	0.700991990444793	0.10287409038066327	0.3911479423167646	0.0990980897147003	0.014960438896720205	0.5207965004265614	0.34950359907500234	0.05793141322480094	0.5846117198758891	0.6192830272209751	0.08585609372425307	0.6145548194515523	0.7313604672870491	0.06520377422701443	0.5878931079430377	0.7657036224212783	0.025608497780531567	0.6535889575987289	0.7371551478426319
373	6.907407407407407	0.34758609239292715	0.710882295849839	0.5532721600429821	0.3066467013100841	0.9973970218586465	0.9236212862084625	0.26264213640300493	1.2247679660355968	1.2812071182952982	0.2845276915784251	1.0786502577494086	1.421258925242067	0.3510297923873531	1.102445343820082	1.391095578901404	0.20020321793727772	1.3496627273173782	1.3264904761597531	0.13126886105902988	0.6540299067531189	0.5783071224057458	0.09912750842128201	0.9436836378931497	0.9387125552293737	0.0845492381662174	1.1836093830187902	1.289681500906018	0.13650896241650293	0.990269687986253	1.4217402468758147	0.058413165925191544	1.0606201322370057	1.407144558740242	0.06727385123503983	1.3098561294133915	1.3073103657386975	0.2782355335546699	0.3507849463924123	0.030844258002894264	0.30991172381891646	0.18037566755953213	-0.16217958796558324	0.33654369103168924	0.15970066277124612	0.022794399206234432	0.4190467349814046	0.502143148137563	0.062217071382119286	0.42061930944168757	0.6702293160117978	0.3095345228120108	0.4557690665950633	0.6850506481408088	0.5903804181467257	0.44408436838482446	0.6720620258196993	0.7111896545280542	0.46691396132849466	0.6822128073827122	0.7146571395151895	0.44829228348369815	0.7348534283698648	0.6968155975298186	0.10282691945035678	0.3927919653290914	0.10262735666540308	0.015731694719260867	0.5154660607966413	0.3430353547636608	0.03494468037581981	0.6064257510689549	0.6182456054702918	0.08150543481505226	0.6139064474082376	0.7356012132404872	0.06666373638474181	0.5756068986957547	0.7676727273721343	0.015555810152658401	0.6667006280839823	0.7379847425047468
